<svg width="30" height="30" viewBox="0 0 30 30" fill="none" xmlns="http://www.w3.org/2000/svg">
<path d="M15 0C23.2837 0 30 6.71625 30 15C30 23.2837 23.2837 30 15 30C6.71625 30 0 23.2837 0 15C0 6.71625 6.71625 0 15 0ZM20.2962 12.1775C16.415 12.1775 15.905 15.365 15.8387 16.2088L15.825 16.5062C15.815 17.115 15.9425 20.4538 19.9863 20.6163L20.5288 20.625C21.3513 20.6125 24.0788 20.3913 24.2663 17.9613L24.2762 17.6925H22.2288L22.2213 17.81C22.1813 18.0938 21.9462 18.8013 20.5875 18.8713L20.2338 18.8775C19.8038 18.865 18.4487 18.7062 18.3275 17.1862L18.3187 16.96H24.3438L24.3575 16.8175C24.4225 16.0138 24.5112 12.1775 20.2962 12.1775ZM11.6762 9.375H5.625V20.3912H11.7463C12.2388 20.3862 15.1837 20.2375 15.3612 17.4125L15.3712 16.9975C15.3662 16.46 15.2212 14.565 13.425 14.4138L13.1925 14.405C13.1925 14.405 14.9662 14.28 14.9662 12.3088C14.9662 10.4163 13.6287 9.45375 11.895 9.38L11.675 9.375H11.6762ZM8.29125 15.49H11.68L11.7687 15.4963C12.0562 15.5288 12.9025 15.7338 12.9025 17.0025C12.9025 18.2913 11.9863 18.4237 11.505 18.4337H8.29125V15.49V15.49ZM20.3413 13.7912C21.8038 13.7912 22.06 14.9162 22.105 15.335L22.115 15.49H18.295L18.32 15.37C18.42 14.975 18.8413 13.7912 20.3413 13.7912ZM8.29125 11.3325L11.6912 11.3338L11.76 11.3425C11.9687 11.3775 12.4975 11.56 12.4975 12.48C12.4975 13.5575 12.0687 13.7687 11.5612 13.79L11.4663 13.7912H8.29125V11.3325V11.3325ZM22.5912 10.0238H17.795V11.3812H22.5912V10.0238V10.0238Z" fill="black"/>
</svg>
