<svg width="30" height="30" viewBox="0 0 30 30" fill="none" xmlns="http://www.w3.org/2000/svg">
<path d="M15 0C23.2837 0 30 6.71625 30 15C30 23.2837 23.2837 30 15 30C6.71625 30 0 23.2837 0 15C0 6.71625 6.71625 0 15 0ZM15 5C12.3478 5 9.8043 6.05357 7.92893 7.92893C6.05357 9.8043 5 12.3478 5 15C5 17.6522 6.05357 20.1957 7.92893 22.0711C9.8043 23.9464 12.3478 25 15 25C17.6522 25 20.1957 23.9464 22.0711 22.0711C23.9464 20.1957 25 17.6522 25 15C25 12.3478 23.9464 9.8043 22.0711 7.92893C20.1957 6.05357 17.6522 5 15 5V5ZM13.4662 16.9212C15.6537 16.9212 17.6037 17.4225 19.2825 18.4288C19.5325 18.575 19.6788 18.7237 19.6788 19.0937C19.6788 19.4537 19.3862 19.7187 19.0562 19.7187C18.895 19.7187 18.785 19.6625 18.6337 19.57C17.1837 18.695 15.3775 18.2325 13.4588 18.2325C12.3888 18.2325 11.3125 18.37 10.305 18.58C10.1425 18.615 9.935 18.6787 9.8125 18.6787C9.72937 18.6799 9.64685 18.6645 9.56976 18.6334C9.49267 18.6022 9.42257 18.5561 9.36355 18.4975C9.30453 18.4389 9.25779 18.3692 9.22606 18.2924C9.19433 18.2155 9.17824 18.1331 9.17875 18.05C9.17875 17.63 9.42125 17.4213 9.72375 17.3625C10.9506 17.0747 12.2061 16.9266 13.4662 16.9212V16.9212ZM13.3288 13.655C15.9463 13.655 18.4787 14.3075 20.4688 15.4988C20.8025 15.69 20.9262 15.9325 20.9262 16.2888C20.9271 16.3916 20.9075 16.4936 20.8686 16.5888C20.8298 16.684 20.7724 16.7706 20.6999 16.8435C20.6273 16.9164 20.541 16.9741 20.446 17.0134C20.351 17.0528 20.2491 17.0728 20.1463 17.0725C19.93 17.0725 19.7925 16.985 19.6463 16.8975C18.0187 15.9337 15.7638 15.2912 13.2963 15.2912C12.0288 15.2912 10.9362 15.4687 10.0312 15.71C9.83625 15.7637 9.7275 15.8225 9.545 15.8225C9.44214 15.8223 9.34031 15.8019 9.24536 15.7623C9.1504 15.7228 9.06417 15.6649 8.99161 15.592C8.91905 15.5191 8.86158 15.4326 8.82248 15.3374C8.78338 15.2423 8.76342 15.1404 8.76375 15.0375C8.76375 14.6125 8.97 14.32 9.38625 14.2025C10.5112 13.8938 11.6575 13.655 13.3288 13.655ZM13.5325 10.2188C16.47 10.2188 19.5575 10.8237 21.815 12.1487C22.1187 12.3212 22.33 12.5812 22.33 13.0562C22.33 13.6025 21.8925 13.9937 21.3875 13.9937C21.1838 13.9937 21.0625 13.9437 20.8713 13.84C19.0613 12.755 16.2525 12.1563 13.5363 12.1563C12.18 12.1563 10.8037 12.2937 9.54125 12.6375C9.39625 12.6737 9.2125 12.7462 9.02875 12.7462C8.90373 12.7469 8.77983 12.7226 8.66435 12.6747C8.54887 12.6268 8.44414 12.5563 8.35632 12.4673C8.2685 12.3783 8.19937 12.2727 8.15299 12.1566C8.1066 12.0405 8.08391 11.9163 8.08625 11.7912C8.08625 11.2475 8.42375 10.9413 8.78625 10.835C10.2112 10.415 11.8025 10.2188 13.5325 10.2188Z" fill="black"/>
</svg>
