<svg width="30" height="30" viewBox="0 0 30 30" fill="none" xmlns="http://www.w3.org/2000/svg">
<path d="M15 0C23.2837 0 30 6.71625 30 15C30 23.2837 23.2837 30 15 30C6.71625 30 0 23.2837 0 15C0 6.71625 6.71625 0 15 0ZM18.9912 8.75C17.0087 8.75 15.4013 10.3038 15.4013 12.2213C15.4013 12.4925 15.4325 12.7587 15.4938 13.0125C14.0772 12.949 12.6889 12.5941 11.4157 11.97C10.1424 11.3458 9.01159 10.4659 8.09375 9.385C7.785 9.8975 7.6075 10.4937 7.6075 11.1312C7.6075 12.335 8.24125 13.3975 9.205 14.02C8.63656 14.0028 8.07987 13.8539 7.57875 13.585V13.63C7.57875 15.3113 8.81625 16.7137 10.4587 17.0337C9.92881 17.1724 9.37482 17.1925 8.83625 17.0925C9.29375 18.4712 10.62 19.475 12.19 19.5025C10.9062 20.4723 9.34012 20.9947 7.73125 20.99C7.4425 20.99 7.15625 20.9725 6.875 20.94C8.52801 21.9635 10.4345 22.5039 12.3787 22.5C18.9825 22.5 22.5938 17.2113 22.5938 12.6237C22.5938 12.4737 22.5912 12.3238 22.5837 12.1738C23.2832 11.6867 23.8899 11.0783 24.375 10.3775C23.7178 10.6591 23.0229 10.8431 22.3125 10.9238C23.0559 10.4985 23.6176 9.81536 23.8913 9.00375C23.1834 9.40939 22.4128 9.69413 21.6112 9.84625C21.2702 9.49743 20.8625 9.22066 20.4125 9.03235C19.9624 8.84404 19.4791 8.74802 18.9912 8.75V8.75Z" fill="black"/>
</svg>
